<svg enable-background="new 0 0 800 343" viewBox="0 0 800 343" xmlns="http://www.w3.org/2000/svg"><path d="m191 129.84c-1.42 10.97 6.65 16.45 21.34 16.45 14.7 0 24.61-5.49 26.04-16.45l13.49-104.17c.51-3.95 2.06-5.7 6-5.7h19.07c3.96 0 4.82 1.75 4.31 5.7l-14.17 109.43c-2.39 18.42-18.23 35.75-57.93 35.75s-51.04-17.33-48.65-35.75l14.17-109.44c.51-3.95 2.27-5.7 6.22-5.7h19.09c3.73 0 5.03 1.75 4.52 5.7z" fill="#28aae1"/><path d="m396.25 19.96c3.73 0 5.32 1.32 4.81 5.26l-1.79 13.82c-.51 3.95-2.47 5.48-6.19 5.48h-31.14l-15.4 118.87c-.51 3.95-2.05 5.7-6 5.7h-19.08c-3.95 0-5.26-1.75-4.75-5.7l15.4-118.87h-31.14c-3.94 0-5.28-1.53-4.77-5.48l1.79-13.82c.51-3.94 2.22-5.26 6.17-5.26h92.09z" fill="#28aae1"/><path d="m434.01 129.84c-1.42 10.97 6.65 16.45 21.34 16.45 14.7 0 24.61-5.49 26.04-16.45l13.49-104.17c.51-3.95 2.06-5.7 6-5.7h19.07c3.96 0 4.82 1.75 4.31 5.7l-14.18 109.43c-2.39 18.42-18.23 35.75-57.93 35.75s-51.04-17.33-48.65-35.75l14.17-109.44c.51-3.95 2.27-5.7 6.22-5.7h19.09c3.73 0 5.03 1.75 4.52 5.7z" fill="#28aae1"/><path d="m572.26 112.29-6.62 51.1c-.51 3.95-2.05 5.7-6 5.7h-19.08c-3.94 0-5.04-1.75-4.52-5.7l17.84-137.73c.51-3.95 2.05-5.7 6-5.7h46.06c39.69 0 50.83 17.32 48.44 35.75l-2.69 20.83c-1.68 12.94-9.85 25.22-28.22 31.59l16.53 55.26c1.08 3.52-1.83 5.7-5.78 5.7h-19.3c-3.07 0-3.67-2.19-4.75-5.7l-14.87-51.1h-1.32zm8.78-67.77-5.6 43.21h21.71c14.69 0 24.4-5.49 25.82-16.45l1.33-10.31c1.42-10.96-6.87-16.45-21.56-16.45z" fill="#28aae1"/><path d="m672.15 169.09c-3.94 0-5.04-1.75-4.52-5.7l17.84-137.73c.51-3.95 2.06-5.7 6-5.7h75c3.73 0 5.32 1.32 4.8 5.26l-1.79 13.82c-.51 3.95-2.47 5.48-6.19 5.48h-50.65l-4.6 35.54h46.92c3.95 0 5.54 1.31 5.03 5.26l-1.71 13.16c-.48 3.73-2.44 5.27-6.39 5.27h-46.92l-5.29 40.79h52.85c3.95 0 5.32 1.32 4.81 5.27l-1.79 13.81c-.51 3.95-2.24 5.48-6.19 5.48h-77.21z" fill="#28aae1"/><path d="m149.72 20.01h-80.57c-3.96 0-5.49 1.76-5.93 5.72l-15.64 138.25c-.3 2.67.2 4.27 1.72 5.07l30.37-26.03 4.28-37.82h52.39c3.96 0 5.68-1.54 6.12-5.5l1.59-14.09c.45-3.96-.94-5.29-4.9-5.29h-52.39l4.03-35.66h56.14c3.74 0 5.68-1.54 6.13-5.51l1.57-13.87c.45-3.95-1.17-5.27-4.91-5.27z" fill="#28aae1"/><g fill="#204496"><path d="m200.61 294.67c-1.89 14.61-13.07 28.37-44.56 28.37s-39.12-13.75-37.23-28.37l8.34-64.39c1.89-14.61 13.07-28.36 44.57-28.36s39.11 13.75 37.22 28.36l-1.08 8.35c-.41 3.14-1.61 4.35-4.57 4.35h-14.44c-3.13 0-4.19-1.22-3.78-4.35l.54-4.18c1.13-8.7-4.4-13.05-16.06-13.05s-18.14 4.35-19.27 13.05l-7.26 56.03c-1.12 8.7 4.22 13.05 15.89 13.05s18.32-4.35 19.44-13.05l.85-6.61c.41-3.13 1.78-4.35 4.91-4.35h14.44c2.96 0 3.85 1.22 3.44 4.35z"/><path d="m226.16 230.29c1.89-14.61 14.46-28.36 45.96-28.36s40.51 13.75 38.61 28.36l-8.34 64.39c-1.9 14.61-14.46 28.37-45.96 28.37s-40.51-13.75-38.61-28.37zm60.54 4.17c1.13-8.7-5.44-13.05-17.1-13.05s-19.18 4.35-20.31 13.05l-7.26 56.03c-1.12 8.7 5.27 13.05 16.93 13.05s19.36-4.35 20.48-13.05z"/><path d="m406.66 317.29c-.38 2.95-1.61 4.35-4.74 4.35h-13.75c-2.26 0-3.06-.52-3.73-2.09l-26.13-57.6c-3.69-7.82-5.03-13.57-5.14-14.09l-8.99 69.43c-.38 2.95-1.61 4.35-4.74 4.35h-13.74c-3.14 0-3.99-1.39-3.61-4.35l14.19-109.63c.38-2.96 1.6-4.35 4.74-4.35h13.75c1.92 0 2.89.52 3.43 1.74l27.21 60.03c2.3 5.05 4.34 12.18 4.34 12.18l9.01-69.6c.38-2.96 1.61-4.35 4.74-4.35h13.75c3.13 0 3.99 1.39 3.61 4.35z"/><path d="m440.2 230.29c1.89-14.61 14.46-28.36 45.96-28.36s40.51 13.75 38.61 28.36l-8.34 64.39c-1.89 14.61-14.46 28.37-45.96 28.37s-40.51-13.75-38.62-28.37zm60.54 4.17c1.13-8.7-5.44-13.05-17.1-13.05s-19.18 4.35-20.31 13.05l-7.26 56.03c-1.12 8.7 5.27 13.05 16.93 13.05s19.36-4.35 20.48-13.05z"/><path d="m641.76 317.29c-.38 2.95-1.61 4.35-4.74 4.35h-14.44c-3.13 0-3.99-1.39-3.61-4.35l8.56-66.13c-.24.52-4.75 11.14-7.1 15.84l-17.41 32.37c-1.58 2.78-3.35 4.35-6.31 4.35h-12.35c-2.96 0-4.31-1.74-5.01-4.35l-10.26-34.98c-1.27-3.65-2.32-11.65-2.34-12.88l-8.51 65.78c-.38 2.95-1.61 4.35-4.74 4.35h-13.75c-3.13 0-3.99-1.39-3.61-4.35l14.19-109.63c.38-2.96 1.61-4.35 4.74-4.35h13.75c2.26 0 3.02.87 3.51 2.44l18.77 60.73c1.47 4.7 2.77 12.18 2.77 12.18s3.14-6.79 6.08-12.01l33.69-61.26c.89-1.57 2.18-2.09 4.27-2.09h14.44c3.13 0 4 1.39 3.61 4.35z"/><path d="m707.36 247.34c.69 2.79 1.68 8.53 1.76 9.22.26-.69 2.58-6.43 4.33-9.22l23.58-39.67c1.36-2.43 2.65-4.35 5.61-4.35h14.97c2.96 0 4.32 1.57 2.57 4.35l-41.79 68.73-5.29 40.9c-.38 2.95-1.61 4.35-4.74 4.35h-15.14c-3.13 0-4.17-1.39-3.78-4.35l4.93-38.11-23.8-71.52c-.88-2.61.56-4.35 3.52-4.35h17.23c2.96 0 3.95 1.74 4.66 4.35z"/><path d="m107.16 203.32h-37.31l-29.68 25.44-11.44 88.36c-.4 3.13.45 4.52 3.59 4.52h61.26c3.13 0 4.51-1.22 4.91-4.35l1.42-10.97c.41-3.13-.67-4.18-3.8-4.18h-41.95l4.19-32.37h37.25c3.13 0 4.68-1.22 5.06-4.17l1.35-10.44c.4-3.13-.85-4.17-3.99-4.17h-37.24l3.66-28.19h40.2c2.95 0 4.51-1.22 4.91-4.35l1.42-10.96c.4-3.13-.85-4.17-3.81-4.17z"/></g></svg>