<svg id="Layer_1" data-name="Layer 1" xmlns="http://www.w3.org/2000/svg" viewBox="0 0 840 146"><defs><style>.cls-1{fill:#e11683;}.cls-2{fill:#1d4289;}</style></defs><title>logo_futureEconomy</title><path class="cls-1" d="M35.31,123.74H20V22.18H63.57V37.57H35.31v27.7H56V80.66H35.31Zm63,1.13a23.68,23.68,0,0,0,17.17-7,23.08,23.08,0,0,0,7.13-17.17V22.26h-16v78.31a8.71,8.71,0,0,1-8.75,8.75,8.54,8.54,0,0,1-6.23-2.55,8.35,8.35,0,0,1-2.59-6.2V22.26h-15v78.48a24.05,24.05,0,0,0,24.22,24.13m51.1-1.13h15.31V37.65h16.2V22.26H133.15V37.65h16.27Zm66.25,1.13a23.67,23.67,0,0,0,17.16-7A23.06,23.06,0,0,0,240,100.74V22.26H224v78.31a8.71,8.71,0,0,1-8.75,8.75,8.6,8.6,0,0,1-6.24-2.55,8.38,8.38,0,0,1-2.58-6.2V22.26h-15v78.48a24,24,0,0,0,24.21,24.13M250.49,22.26V123.74H265.8V85.51H276l9.29,38.23h16.55L290.5,79.44a23.69,23.69,0,0,0,8.18-18.22V46.48q0-11-5.26-17.17-6-7-18.79-7Zm33.29,39.28a8.58,8.58,0,0,1-2.55,6.24A8.4,8.4,0,0,1,275,70.37H265.8V37.89H275q8.73,0,8.74,8.83Zm72.16,62.2V108.35H327.68V80.66h20.65V65.27H327.68V37.57h28.26V22.18H312.37V123.74Z"/><path class="cls-2" d="M387.52,123.74V22.18H431.1V37.57H402.83v27.7h20.65V80.66H402.83v27.69H431.1v15.39Zm78.4,1.3a24.19,24.19,0,0,0,24.21-24.22V86.65H474.26v14a8.34,8.34,0,0,1-2.59,6.19,8.53,8.53,0,0,1-6.23,2.56,8.72,8.72,0,0,1-8.75-8.75V45.1a8.54,8.54,0,0,1,2.55-6.23,8.34,8.34,0,0,1,6.2-2.6,8.86,8.86,0,0,1,8.82,8.83V57h15.87V45.43a23.54,23.54,0,0,0-7-17.18,23.23,23.23,0,0,0-17.17-7.12,24.26,24.26,0,0,0-24.3,24.3v55.39A24.21,24.21,0,0,0,465.92,125M524.88,21a23.4,23.4,0,0,0-17.09,7.09,23.39,23.39,0,0,0-7.13,17.21v55.4a23.54,23.54,0,0,0,7,17.17A23.23,23.23,0,0,0,524.88,125a24.28,24.28,0,0,0,24.3-24.3V45.26a23.5,23.5,0,0,0-7.09-17.17A23.38,23.38,0,0,0,524.88,21m8.34,79.54a8.71,8.71,0,0,1-8.75,8.74,8.52,8.52,0,0,1-6.23-2.55,8.35,8.35,0,0,1-2.6-6.19V44.94a8.38,8.38,0,0,1,2.6-6.2,8.56,8.56,0,0,1,6.23-2.55,8.71,8.71,0,0,1,8.75,8.75ZM559.7,22.18V123.74H575v-65l21,65h16.45V22.18H597.2V90.43L576.89,22.18ZM647.26,21a23.4,23.4,0,0,0-17.1,7.09A23.39,23.39,0,0,0,623,45.26v55.4a23.58,23.58,0,0,0,7.05,17.17,24.28,24.28,0,0,0,41.47-17.17V45.26a23.49,23.49,0,0,0-7.08-17.17A23.41,23.41,0,0,0,647.26,21m8.33,79.54a8.71,8.71,0,0,1-8.74,8.74,8.53,8.53,0,0,1-6.24-2.55A8.34,8.34,0,0,1,638,100.5V44.94a8.37,8.37,0,0,1,2.59-6.2,8.57,8.57,0,0,1,6.24-2.55,8.71,8.71,0,0,1,8.74,8.75Zm41.79-40.42,14.83,63.66h12.31L737.8,59.92v63.82h15.3V22.18H732L718.3,95.13,704,22.18h-22V123.74h15.31Zm86.74,63.66h15.31V81.22l20.57-59H803.07L791.81,58.63,780.48,22.18H763.63l20.49,59Z"/></svg>